<svg width="357" height="513" viewBox="0 0 357 513" fill="none" xmlns="http://www.w3.org/2000/svg">
<path d="M0.941406 96.349C0.941406 43.4443 43.8292 0.556641 96.7344 0.556641H261.102C314.007 0.556641 356.895 43.4443 356.895 96.349C356.895 129.849 339.699 159.333 313.652 176.454C339.699 193.576 356.895 223.059 356.895 256.559C356.895 309.464 314.007 352.352 261.102 352.352H259.022C234.22 352.352 211.619 342.926 194.607 327.461V415.724C194.607 469.334 150.598 512.557 97.2504 512.557C44.4775 512.557 0.941406 469.8 0.941406 416.764C0.941406 383.266 18.1359 353.784 44.1806 336.662C18.1359 319.54 0.941406 290.057 0.941406 256.559C0.941406 223.059 18.1374 193.576 44.1839 176.454C18.1374 159.333 0.941406 129.849 0.941406 96.349ZM163.229 192.144H96.7344C61.1586 192.144 32.3192 220.984 32.3192 256.559C32.3192 291.997 60.9362 320.751 96.3224 320.973C96.4594 320.972 96.5964 320.972 96.7344 320.972H163.229V192.144ZM194.607 256.559C194.607 292.134 223.446 320.974 259.022 320.974H261.102C296.678 320.974 325.517 292.134 325.517 256.559C325.517 220.984 296.678 192.144 261.102 192.144H259.022C223.446 192.144 194.607 220.984 194.607 256.559ZM96.7344 352.352C96.5964 352.352 96.4594 352.351 96.3224 352.351C60.9362 352.572 32.3192 381.326 32.3192 416.764C32.3192 452.209 61.5439 481.179 97.2504 481.179C133.532 481.179 163.229 451.743 163.229 415.724V352.352H96.7344ZM96.7344 31.9344C61.1586 31.9344 32.3192 60.7739 32.3192 96.349C32.3192 131.925 61.1586 160.764 96.7344 160.764H163.229V31.9344H96.7344ZM194.607 160.764H261.102C296.678 160.764 325.517 131.925 325.517 96.349C325.517 60.7739 296.678 31.9344 261.102 31.9344H194.607V160.764Z" fill="#7C7C7C"/>
</svg>
