<svg width="23" height="20" viewBox="0 0 23 20" fill="none" xmlns="http://www.w3.org/2000/svg">
<path d="M15.5263 11.9493C15.9553 11.9493 16.3163 12.1593 16.6283 12.5853C16.9383 13.0073 17.0963 13.5293 17.0963 14.1453C17.0963 14.7643 16.9403 15.2863 16.6283 15.7083C16.3163 16.1303 15.9503 16.3423 15.5263 16.3423C15.0753 16.3423 14.6873 16.1323 14.3753 15.7083C14.0683 15.2863 13.9103 14.7643 13.9103 14.1453C13.9103 13.5263 14.0633 13.0063 14.3753 12.5853C14.6873 12.1583 15.0773 11.9493 15.5263 11.9493ZM21.0453 6.23433C22.2473 7.53733 22.8543 9.11833 22.8543 10.9723C22.8543 12.1753 22.7123 13.2583 22.4393 14.2213C22.1613 15.1793 21.8103 15.9643 21.3913 16.5643C20.9643 17.1693 20.4483 17.7003 19.8263 18.1493C19.2043 18.6103 18.6313 18.9393 18.1143 19.1513C17.5973 19.3633 17.0023 19.5273 16.3293 19.6413C15.6643 19.7583 15.1613 19.8213 14.8123 19.8393C14.4763 19.8543 14.1103 19.8613 13.7153 19.8613C13.6273 19.8613 13.3303 19.8713 12.8363 19.8853C12.3543 19.9053 11.9403 19.9143 11.6183 19.9143C11.2963 19.9143 10.8823 19.9043 10.4003 19.8853C9.91028 19.8703 9.61028 19.8613 9.52128 19.8613C9.12628 19.8613 8.75728 19.8563 8.42328 19.8393C8.07328 19.8223 7.57128 19.7593 6.90928 19.6413C6.23328 19.5293 5.64128 19.3683 5.12228 19.1513C4.60528 18.9413 4.03328 18.6103 3.41428 18.1493C2.79028 17.6953 2.27328 17.1663 1.84628 16.5643C1.42728 15.9643 1.07428 15.1793 0.798277 14.2213C0.526277 13.2583 0.384277 12.1753 0.384277 10.9723C0.384277 9.11833 0.989277 7.53733 2.19428 6.23433C2.06128 6.16933 2.05428 5.52033 2.17328 4.28233C2.28028 3.04333 2.54328 1.90233 2.97028 0.861328C4.47328 1.02133 6.32228 1.86933 8.53728 3.40033C9.28528 3.20533 10.3093 3.10533 11.6153 3.10533C12.9853 3.10533 14.0093 3.20533 14.6943 3.40033C15.7033 2.71933 16.6693 2.16133 17.5903 1.73733C18.5263 1.31833 19.1993 1.07033 19.6233 1.00633L20.2573 0.861328C20.6863 1.90233 20.9493 3.04633 21.0573 4.28233C21.1813 5.51933 21.1743 6.16933 21.0423 6.23433H21.0453ZM11.6723 18.7853C14.3753 18.7853 16.4133 18.4613 17.7973 17.8123C19.1773 17.1613 19.8793 15.8223 19.8793 13.8043C19.8793 12.6343 19.4383 11.6543 18.5573 10.8723C18.1033 10.4483 17.5723 10.1913 16.9623 10.0913C16.3673 9.99333 15.4483 9.99333 14.2073 10.0913C12.9713 10.1913 12.1253 10.2363 11.6703 10.2363C11.0513 10.2363 10.3793 10.2033 9.54528 10.1383C8.71128 10.0763 8.05828 10.0363 7.59128 10.0163C7.11328 10.0013 6.60528 10.0613 6.05328 10.1883C5.49628 10.3213 5.04528 10.5453 4.68028 10.8693C3.84028 11.6193 3.41428 12.5943 3.41428 13.8013C3.41428 15.8203 4.09828 17.1583 5.46428 17.8073C6.82928 18.4603 8.86128 18.7823 11.5653 18.7823L11.6723 18.7853ZM7.76328 11.9493C8.18728 11.9493 8.55228 12.1593 8.86128 12.5853C9.17128 13.0073 9.32828 13.5293 9.32828 14.1453C9.32828 14.7643 9.17328 15.2863 8.86128 15.7083C8.55228 16.1303 8.18428 16.3423 7.76328 16.3423C7.30828 16.3423 6.92228 16.1323 6.61028 15.7083C6.30128 15.2863 6.14328 14.7643 6.14328 14.1453C6.14328 13.5263 6.29828 13.0063 6.61028 12.5853C6.92228 12.1583 7.30928 11.9493 7.76328 11.9493Z" fill="#7C7C7C"/>
</svg>
