<svg width="1985" height="1985" viewBox="0 0 1985 1985" fill="none" xmlns="http://www.w3.org/2000/svg">
<path d="M916.197 995.817C916.197 959.417 942.597 925.017 981.397 925.017C1017 925.017 1051 950.617 1051 989.417C1051 1025.82 1025.4 1060.22 986.597 1060.22C950.597 1060.22 916.197 1033.42 916.197 995.817ZM1984.6 992.617C1984.6 1540.62 1540.6 1984.62 992.597 1984.62C444.597 1984.62 0.597168 1540.62 0.597168 992.617C0.597168 444.617 444.597 0.617188 992.597 0.617188C1540.6 0.617188 1984.6 444.617 1984.6 992.617ZM1878.2 992.617C1878.2 503.417 1481.8 107.017 992.597 107.017C503.397 107.017 106.997 503.417 106.997 992.617C106.997 1481.82 503.397 1878.22 992.597 1878.22C1481.8 1878.22 1878.2 1481.82 1878.2 992.617ZM1588.2 1379.02C1588.2 1393.42 1640.2 1419.82 1653.4 1427.82C1543.8 1593.82 1374.2 1713.42 1181.8 1761.02L1164.2 1687.02C1163 1677.02 1156.6 1675.82 1147.4 1675.82C1139.8 1675.82 1135.4 1687.02 1136.2 1692.62L1153.8 1767.82C1100.6 1779.02 1046.6 1784.62 992.197 1784.62C846.997 1784.62 704.197 1743.82 580.197 1668.22C586.997 1657.02 628.997 1596.22 628.997 1587.42C628.997 1579.82 622.197 1573.02 614.597 1573.02C598.997 1573.02 565.797 1639.42 555.797 1652.62C388.597 1541.82 267.797 1370.22 221.397 1174.22L297.797 1157.42C306.597 1155.02 308.997 1148.62 308.997 1140.62C308.997 1133.02 297.797 1128.62 291.397 1129.42L216.597 1146.62C206.597 1095.82 200.997 1044.62 200.997 992.617C200.997 844.217 242.997 698.217 321.797 573.017C332.997 579.817 386.197 616.217 394.997 616.217C402.597 616.217 409.397 610.617 409.397 603.017C409.397 587.417 350.597 557.817 337.397 548.617C450.197 383.817 621.797 265.017 816.597 221.017L833.397 295.017C835.797 303.817 842.197 306.217 850.197 306.217C858.197 306.217 862.197 295.017 861.397 288.617L844.597 215.417C893.397 206.617 942.997 201.017 992.997 201.017C1141.4 201.017 1286.2 243.017 1412.6 321.817C1405 333.017 1369.4 385.017 1369.4 393.817C1369.4 401.417 1375 408.217 1382.6 408.217C1398.2 408.217 1427.8 350.617 1435.8 337.417C1599.8 448.217 1717 617.417 1762.6 810.217L1700.6 823.417C1690.6 825.817 1689.4 832.217 1689.4 841.017C1689.4 848.617 1700.6 853.017 1706.2 852.217L1769.4 837.817C1779.4 888.617 1785 940.617 1785 992.617C1785 1137.82 1745 1280.62 1669.8 1403.42C1658.6 1397.82 1612.2 1364.62 1603.4 1364.62C1595 1364.62 1588.2 1371.42 1588.2 1379.02ZM1455.4 410.217C1403.4 459.017 918.597 905.017 904.997 928.217L518.597 1570.22C569.397 1522.62 1055.4 1074.22 1067.8 1053.02L1455.4 410.217Z" fill="#7C7C7C"/>
</svg>
