<svg width="106" height="45" viewBox="0 0 106 45" fill="none" xmlns="http://www.w3.org/2000/svg">
<path d="M46.7161 11.2012H64.0032V18.4303H53.9452V25.6595H64.0032V32.8886H46.7161V11.2012Z" fill="#7C7C7C"/>
<path d="M67.4607 11.2012H84.7478V17.4874H74.6898V18.7446H84.7478V33.2029H67.4607V26.6024H77.5186V25.3452H67.4607V11.2012Z" fill="#7C7C7C"/>
<path d="M88.2051 11.2012H105.492V17.4874H95.4342V18.7446H105.492V33.2029H88.2051V26.6024H98.2631V25.3452H88.2051V11.2012Z" fill="#7C7C7C"/>
<path d="M35.5623 39.9594L19.791 44.3317L4.06322 39.9656L0.55835 0.654297H39.0709L35.5623 39.9594Z" fill="#6F6F6F"/>
<path d="M19.8147 40.9893L32.5586 37.4562L35.557 3.86816H19.8147V40.9893Z" fill="#939393"/>
<path d="M19.8147 18.4482H8.59326L9.02539 23.2696H19.8147V18.4482Z" fill="#EBEBEB"/>
<path d="M19.7979 8.69043H7.72485L8.16313 13.5119H19.8146V8.69043H19.7979Z" fill="#EBEBEB"/>
<path d="M19.7935 30.9758L14.4239 29.5259L14.0806 25.6807H11.4714H9.24072L9.91619 33.2509L19.7924 35.9926L19.8146 35.9864V30.9702L19.7935 30.9758Z" fill="#EBEBEB"/>
<path d="M26.5916 13.5119L26.1529 18.449H19.7979V23.2703H25.7348L25.1752 29.5233L19.7979 30.9747V35.9907L29.6819 33.2513L29.7544 32.4368L30.8874 19.7437L31.005 18.449L31.8754 8.69043H19.7979V13.5119H26.5916Z" fill="white"/>
</svg>
