<svg width="106" height="24" viewBox="0 0 106 24" fill="none" xmlns="http://www.w3.org/2000/svg">
<path d="M32.679 23.5062V0.460668H33.9299V4.08599C34.0777 3.9254 34.2142 3.75479 34.3384 3.57538C34.8496 2.51427 35.6527 1.62085 36.6535 0.99986C37.6543 0.378869 38.8114 0.0560345 39.9892 0.0691987C42.8401 -0.0159028 45.1548 1.03936 46.5165 3.57538C47.3828 5.1508 47.8596 6.91068 47.907 8.70798C47.9544 10.5053 47.571 12.2878 46.7888 13.9067C45.5208 16.7491 42.389 18.1618 39.036 17.6427C37.9926 17.5538 36.988 17.2051 36.114 16.6283C35.2399 16.0515 34.5242 15.2651 34.0321 14.3407V23.5062H32.679ZM33.9299 8.61339C34.0406 9.73673 34.0831 10.5367 34.2108 11.3196C34.7044 14.4003 36.5255 16.23 39.385 16.5619C40.7276 16.7826 42.1052 16.5309 43.283 15.8496C44.4608 15.1684 45.366 14.0998 45.8442 12.8259C46.3937 11.5157 46.6581 10.1035 46.62 8.6832C46.5818 7.2629 46.2419 5.86696 45.6229 4.58809C45.1125 3.44636 44.2444 2.50173 43.1498 1.89684C42.0552 1.29196 40.7934 1.05969 39.5552 1.23509C38.3926 1.31932 37.2851 1.76372 36.3868 2.50649C35.4884 3.24925 34.8439 4.25348 34.5427 5.37954C34.2761 6.44475 34.0716 7.52451 33.9299 8.61339Z" fill="#7C7C7C"/>
<path d="M73.4256 11.7454C73.2361 13.368 72.4637 14.8665 71.2521 15.9622C70.0405 17.058 68.4722 17.6764 66.8388 17.7025C61.5965 17.9663 59.1371 14.4857 58.7456 10.4689C58.4739 8.28757 58.8281 6.07394 59.7668 4.08628C60.4206 2.72287 61.4912 1.60286 62.8238 0.888373C64.1564 0.173886 65.6818 -0.0980089 67.1792 0.112044C68.6028 0.232698 69.9523 0.79813 71.0367 1.72827C72.1211 2.65842 72.8854 3.90613 73.2214 5.29472C73.4878 6.55941 73.6838 7.8379 73.8086 9.12429H60.0307C59.7754 12.7666 61.7327 15.6941 64.507 16.4005C67.9621 17.2515 70.9151 15.7537 71.9874 12.4688C72.2257 11.6263 72.6597 11.5071 73.4256 11.7454ZM60.0307 7.9584H72.3449C72.2683 4.07777 69.8514 1.26942 66.575 1.22687C62.8645 1.1673 60.1924 3.87353 60.0307 7.9584Z" fill="#7C7C7C"/>
<path d="M75.9616 11.8304H77.17C77.2146 12.7196 77.5036 13.5793 78.005 14.315C78.5065 15.0507 79.2011 15.6338 80.0124 16.0004C81.0312 16.4589 82.1403 16.6817 83.2572 16.6522C84.374 16.6228 85.4699 16.3418 86.4631 15.8302C87.0044 15.5862 87.4578 15.182 87.7621 14.6722C88.0665 14.1624 88.2071 13.5716 88.1651 12.9793C88.1963 12.4081 88.0403 11.8423 87.7208 11.3678C87.4014 10.8932 86.9359 10.5358 86.395 10.3497C85.0674 9.85608 83.6547 9.58376 82.3016 9.14974C80.8937 8.74881 79.5171 8.24536 78.1827 7.64344C76.0041 6.57967 75.868 2.43523 78.3359 1.12466C79.5996 0.411543 81.0218 0.0262538 82.4726 0.00395587C83.9235 -0.018342 85.3568 0.32306 86.6418 0.997009C87.4202 1.42722 88.049 2.0845 88.4443 2.88122C88.8397 3.67794 88.9827 4.57623 88.8544 5.45633H87.8162C87.8162 5.40527 87.7226 5.36272 87.7226 5.31166C87.5949 2.00121 84.8206 0.979989 81.8421 1.26933C80.9529 1.37901 80.0893 1.64098 79.289 2.04376C78.8083 2.26362 78.4076 2.62732 78.1424 3.08463C77.8771 3.54194 77.7604 4.07031 77.8083 4.5968C77.8097 5.12354 77.9741 5.63692 78.2788 6.06656C78.5835 6.49621 79.0137 6.82109 79.5103 6.99667C80.8209 7.47324 82.191 7.7796 83.5356 8.15405C84.6164 8.4519 85.7397 8.64764 86.7865 9.00506C87.5253 9.24725 88.1731 9.7081 88.6442 10.3266C89.1153 10.9451 89.3875 11.6921 89.4246 12.4687C89.5509 13.3196 89.406 14.1887 89.0103 14.9525C88.6146 15.7163 87.9884 16.3361 87.2205 16.7238C84.3781 18.3322 79.6975 17.9067 77.6125 15.8728C77.0841 15.3413 76.6662 14.7105 76.3828 14.0167C76.0994 13.3229 75.9563 12.5799 75.9616 11.8304Z" fill="#7C7C7C"/>
<path d="M104.743 5.45654H103.611C103.611 5.30336 103.552 5.16719 103.535 5.03954C103.516 4.19113 103.207 3.37478 102.658 2.7272C102.11 2.07961 101.356 1.64011 100.522 1.4823C98.9487 1.0309 97.2704 1.11168 95.7478 1.71207C95.1459 1.88464 94.616 2.24722 94.2372 2.7457C93.8583 3.24417 93.6509 3.8518 93.6458 4.47787C93.6246 5.09273 93.8162 5.69605 94.1884 6.18599C94.5605 6.67592 95.0902 7.02245 95.6882 7.16708C97.3902 7.69471 99.1348 8.01809 100.862 8.49466C101.422 8.62903 101.973 8.7967 102.513 8.99676C103.319 9.28517 104.02 9.81006 104.523 10.5028C105.026 11.1956 105.308 12.024 105.333 12.8798C105.358 13.7356 105.124 14.579 104.662 15.2997C104.2 16.0205 103.531 16.5851 102.743 16.9197C101.542 17.4651 100.241 17.7536 98.9216 17.7668C97.6027 17.7799 96.2956 17.5175 95.084 16.9963C94.0876 16.5666 93.2468 15.8419 92.6747 14.9199C92.1026 13.9979 91.8267 12.9227 91.8842 11.8392H92.3607H92.9905C93.1951 12.8266 93.6374 13.7492 94.279 14.5272C94.9206 15.3052 95.7422 15.915 96.6726 16.304C97.6029 16.6929 98.6141 16.8491 99.6185 16.7592C100.623 16.6693 101.59 16.3359 102.437 15.7879C102.952 15.52 103.38 15.1098 103.67 14.606C103.96 14.1022 104.099 13.5259 104.071 12.9455C104.096 12.3739 103.935 11.8096 103.611 11.3382C103.287 10.8667 102.818 10.5137 102.275 10.3329C100.947 9.83927 99.5348 9.57545 98.1817 9.14143C96.7657 8.7467 95.3806 8.24894 94.0372 7.65216C91.9097 6.60541 91.7395 2.49501 94.1649 1.18444C95.4443 0.441445 96.8942 0.0423221 98.3736 0.0259176C99.853 0.00951307 101.311 0.376386 102.607 1.09083C103.348 1.53313 103.944 2.18128 104.323 2.95638C104.703 3.73148 104.848 4.60011 104.743 5.45654Z" fill="#7C7C7C"/>
<path d="M30.611 17.2859C30.1654 17.4546 29.6735 17.4542 29.2281 17.2849C28.7828 17.1155 28.4149 16.7889 28.1941 16.3668C26.8069 14.2903 25.2751 12.3074 23.8028 10.282L23.1646 9.43099C21.4115 11.7798 19.6584 14.035 18.0585 16.3753C17.85 16.7787 17.502 17.0927 17.0793 17.2586C16.6566 17.4246 16.188 17.4312 15.7607 17.2774L22.3391 8.45233L16.2203 0.47831C16.6607 0.319273 17.1426 0.317092 17.5845 0.472136C18.0263 0.627179 18.4012 0.929948 18.6457 1.32933C20.0669 3.4058 21.6413 5.38867 23.2071 7.49068C24.7815 5.40569 26.3389 3.41432 27.7941 1.35486C28.0037 0.957955 28.3519 0.651942 28.7724 0.495029C29.1929 0.338117 29.6565 0.341254 30.0748 0.503843L27.7005 3.6526C26.6367 5.05678 25.59 6.46946 24.4836 7.83959C24.3945 7.91941 24.3232 8.01714 24.2744 8.12638C24.2256 8.23563 24.2003 8.35394 24.2003 8.4736C24.2003 8.59326 24.2256 8.71157 24.2744 8.82082C24.3232 8.93006 24.3945 9.02779 24.4836 9.10761C26.5176 11.8053 28.5345 14.5116 30.611 17.2859Z" fill="#7C7C7C"/>
<path d="M58.5414 0.392578V1.584C57.6807 1.52755 56.8177 1.6522 56.0081 1.94991C55.1986 2.24762 54.4604 2.71177 53.8413 3.31241C53.2222 3.91306 52.736 4.63683 52.4139 5.43703C52.0919 6.23723 51.9412 7.09606 51.9716 7.9581C51.9716 10.7608 51.9716 13.5635 51.9716 16.3661C51.9716 16.664 51.9716 16.9618 51.9716 17.3193H50.7546V0.460661H51.9461V3.91578C53.4183 1.39678 55.6905 0.460659 58.5414 0.392578Z" fill="#7C7C7C"/>
<path d="M0 8.34154C0.178713 7.49053 0.289345 6.56292 0.53614 5.69489C2.0084 0.461142 8.00805 -1.71745 12.1355 1.52491C14.5524 3.42268 15.1566 6.11188 15.0374 9.1415H1.4212C1.19993 14.554 5.10609 17.8219 10.1016 16.1539C10.9119 15.864 11.6373 15.3769 12.2123 14.7366C12.7873 14.0962 13.1937 13.3227 13.395 12.486C13.6588 11.635 14.0843 11.4903 14.8928 11.7371C14.7596 12.7731 14.3933 13.7655 13.8214 14.6396C13.2495 15.5137 12.4868 16.2467 11.5908 16.7836C10.1104 17.5932 8.4119 17.9139 6.7382 17.6999C5.06451 17.4859 3.50133 16.7482 2.27221 15.5922C1.05624 14.225 0.321007 12.4975 0.178713 10.6733C0.178713 10.384 0.0680812 10.0946 0.00851015 9.82231C0.00283671 9.31738 0 8.82379 0 8.34154ZM1.43822 7.97561H13.7524C13.6758 4.05243 11.1994 1.26961 7.89742 1.24408C4.22104 1.19302 1.5914 3.91626 1.42971 7.95859L1.43822 7.97561Z" fill="#7C7C7C"/>
</svg>
