<svg width="120" height="60" viewBox="0 0 120 60" fill="none" xmlns="http://www.w3.org/2000/svg">
<path d="M17.9793 53.8335C22.3626 53.8335 25.9209 50.2752 25.9209 45.8919V37.9502H17.9793C13.5959 37.9502 10.0376 41.5085 10.0376 45.8919C10.0376 50.2752 13.5959 53.8335 17.9793 53.8335Z" fill="#B1B1B1"/>
<path d="M10.0291 30.0003C10.0291 25.6169 13.5874 22.0586 17.9707 22.0586H25.9124V37.9503H17.9707C13.5874 37.9503 10.0291 34.3919 10.0291 30.0086V30.0003Z" fill="#8A898B"/>
<path d="M10.0291 14.1087C10.0291 9.72532 13.5874 6.16699 17.9707 6.16699H25.9124V22.0587H17.9707C13.5874 22.0587 10.0291 18.5003 10.0291 14.117V14.1087Z" fill="#565656"/>
<path d="M25.8459 6.16699H33.7876C38.1709 6.16699 41.7293 9.72532 41.7293 14.1087C41.7293 18.492 38.1709 22.0503 33.7876 22.0503H25.8459V6.16699Z" fill="#979797"/>
<path d="M41.8126 30.0003C41.8126 34.3836 38.2543 37.9419 33.8709 37.9419C29.4876 37.9419 25.8459 34.3836 25.8459 30.0003C25.8459 25.6169 29.4043 22.0586 33.7876 22.0586C38.1709 22.0586 41.7293 25.6169 41.7293 30.0003H41.8126Z" fill="#B3B3B3"/>
<path d="M50.4956 19.333V35.983H52.6373V28.033H57.7873V25.9663H52.6373V21.4163H59.3289V19.333H50.4956ZM63.2039 22.7163C63.9789 22.7163 64.6039 22.0913 64.6039 21.3163C64.6039 20.5413 63.9706 19.9997 63.2039 19.9997C62.4373 19.9997 61.8039 20.6247 61.8039 21.3997C61.8039 21.7747 61.9539 22.1247 62.2206 22.3997C62.4873 22.6747 62.8373 22.8163 63.2206 22.8163L63.2039 22.7163ZM62.1206 24.8163V35.983H64.1789V24.8163H62.0539H62.1206ZM72.2206 24.483C69.3706 24.483 67.3873 26.983 67.3873 29.7497C67.3873 32.5163 69.3873 34.9997 72.2206 34.9997C72.8102 35.01 73.3954 34.8975 73.9392 34.6694C74.4829 34.4413 74.9732 34.1025 75.3789 33.6747V35.158C75.373 36.0492 75.0273 36.9046 74.4123 37.5497C74.1016 37.8666 73.7307 38.1184 73.3215 38.2901C72.9122 38.4618 72.4728 38.5501 72.0289 38.5497C71.3474 38.5281 70.6871 38.308 70.1289 37.9163L69.0456 39.7747C69.8776 40.3097 70.8384 40.6105 71.8269 40.6453C72.8154 40.6802 73.7951 40.4478 74.6626 39.9726C75.5302 39.4975 76.2535 38.7972 76.7565 37.9455C77.2595 37.0937 77.5234 36.1221 77.5206 35.133V24.7997H75.3789V25.7997C74.9732 25.3718 74.4829 25.033 73.9392 24.8049C73.3954 24.5768 72.8102 24.4727 72.2206 24.483ZM69.5373 29.7497C69.4885 29.2079 69.5921 28.6633 69.8366 28.1773C70.081 27.6914 70.4565 27.2835 70.9206 26.9997C71.8706 26.4163 73.0623 26.4163 74.0039 26.9997C74.9456 27.583 75.4789 28.6497 75.3873 29.7497C75.4361 30.2915 75.3324 30.8361 75.0879 31.322C74.8435 31.808 74.468 32.2159 74.0039 32.4997C73.0539 33.083 71.8623 33.083 70.9206 32.4997C69.9789 31.9163 69.4456 30.8497 69.5373 29.7497Z" fill="#7C7C7C"/>
<path d="M85.246 26.6668C84.63 26.669 84.0399 26.9147 83.6044 27.3502C83.1688 27.7858 82.9232 28.3759 82.921 28.9918V36.0585H80.7793V24.8918H82.921V25.8335C83.571 24.9668 84.6043 24.4668 85.6876 24.4835C87.0543 24.4502 88.3293 25.1835 89.0043 26.3752C89.8376 25.2085 91.0376 24.5002 92.3376 24.4835C94.7793 24.4835 96.296 26.4502 96.3043 28.8835V35.9918H94.1626V28.9085C94.2254 28.4673 94.1605 28.0173 93.9756 27.6118C93.7907 27.2063 93.4935 26.8622 93.1192 26.6203C92.7449 26.3783 92.3091 26.2487 91.8635 26.2466C91.4178 26.2445 90.9808 26.3701 90.6043 26.6085C90.2298 26.8526 89.9334 27.1992 89.7502 27.6069C89.567 28.0147 89.5048 28.4664 89.571 28.9085V35.9752H87.5126V28.9168C87.5104 28.3009 87.2648 27.7108 86.8292 27.2752C86.3937 26.8397 85.8036 26.594 85.1876 26.5918L85.246 26.6668ZM107.746 26.0835C107.258 25.5748 106.672 25.1712 106.023 24.8975C105.374 24.6238 104.675 24.4858 103.971 24.4918C100.779 24.4918 98.5543 27.1918 98.5543 30.3252C98.5543 33.4585 100.804 36.1585 103.971 36.1585C104.675 36.1646 105.374 36.0266 106.023 35.7528C106.672 35.4791 107.258 35.0755 107.746 34.5668V35.8335H109.888V24.6668H107.746V26.0835ZM100.663 30.4168C100.554 29.0835 101.204 27.8002 102.346 27.1002C103.488 26.4002 104.846 26.4002 106.063 27.1002C106.62 27.446 107.071 27.9382 107.368 28.523C107.665 29.1078 107.796 29.7629 107.746 30.4168C107.854 31.7502 107.204 33.0335 106.063 33.7335C104.921 34.4335 103.563 34.4335 102.346 33.7335C101.789 33.3877 101.337 32.8955 101.04 32.3107C100.743 31.7259 100.613 31.0708 100.663 30.4168Z" fill="#7C7C7C"/>
</svg>
