<svg width="946" height="943" viewBox="0 0 946 943" fill="none" xmlns="http://www.w3.org/2000/svg">
<path fill-rule="evenodd" clip-rule="evenodd" d="M556.846 0C550.007 0 543.657 1.46544 537.796 3.41924C550.252 11.7231 557.09 22.7136 560.509 35.1694C560.754 36.8789 561.242 38.1002 561.487 39.8097C561.732 41.2751 561.975 42.7405 561.975 44.2059C562.952 65.6983 556.357 68.3848 551.717 81.0848C544.634 97.4484 546.588 115.033 555.136 129.199C555.869 130.908 556.846 132.862 558.067 134.572C548.786 72.781 600.319 63.5002 609.844 44.2059C610.577 27.3539 596.656 16.1193 585.665 8.30386C575.163 1.95386 565.638 0 556.846 0ZM634.512 13.9212C633.534 19.5385 634.267 18.0731 634.023 21.0039C633.779 22.9577 633.779 25.4001 633.535 27.3539C633.047 29.3078 632.558 31.2616 631.826 33.2155C631.338 35.1694 630.605 37.1232 629.872 39.077C628.895 41.031 628.162 42.7405 627.185 44.6944C626.453 45.6717 625.964 46.6482 625.232 47.6252C624.743 48.3579 624.254 49.0906 623.766 49.8232C622.545 51.5329 621.324 53.2425 620.103 54.7078C618.637 56.1733 617.416 57.8828 615.706 59.1041V59.3486C614.241 60.5698 612.776 62.0352 611.066 63.2563C605.937 67.164 600.076 70.0948 594.702 73.7583C592.993 74.9794 591.283 75.9564 589.818 77.4217C588.108 78.6429 586.643 79.864 585.178 81.3294C583.468 82.7948 582.247 84.2602 580.781 85.9699C579.56 87.4353 578.095 89.1448 577.118 90.8545C575.897 92.5641 574.676 94.2737 573.699 95.9833C572.721 97.9371 571.989 99.6468 571.012 101.601C570.279 103.554 569.547 105.264 569.058 107.218C568.326 109.416 567.837 111.37 567.349 113.324C567.104 114.301 567.104 115.522 566.86 116.499C566.616 117.476 566.616 118.453 566.372 119.43C566.372 121.383 566.128 123.581 566.128 125.535C566.128 127.001 566.128 128.466 566.372 129.932C566.372 131.885 566.617 133.839 567.105 136.037C567.35 137.991 567.838 139.945 568.326 141.899C569.059 143.853 569.548 145.807 570.28 147.76C570.768 148.982 571.501 150.203 571.99 151.18L515.817 129.443C506.291 126.756 497.011 124.314 487.486 122.116C482.357 120.895 477.228 119.674 472.099 118.453C457.445 115.522 442.547 113.324 427.649 111.858C427.161 111.858 426.916 111.614 426.428 111.614C411.774 110.148 397.364 109.416 382.71 109.416C371.964 109.416 361.218 109.904 350.716 110.637C335.818 111.614 320.92 113.568 306.022 116.01C302.358 116.498 298.695 117.231 295.031 117.964C287.46 119.429 280.133 121.139 273.05 122.849C269.387 123.826 265.723 124.802 262.06 125.779C258.397 127.245 254.977 128.954 251.558 130.42C248.871 131.641 246.185 132.862 243.498 134.083C243.01 134.328 242.521 134.328 242.277 134.571C239.835 135.792 237.637 136.769 235.439 137.99C234.706 138.235 234.218 138.479 233.729 138.723C231.043 139.944 228.356 141.41 226.158 142.631C224.448 143.364 222.739 144.341 221.273 145.073C220.541 145.561 219.564 146.051 219.075 146.294C216.877 147.515 214.679 148.737 212.725 149.958C210.527 151.179 208.573 152.4 206.864 153.621C205.154 154.842 203.444 155.819 201.979 157.04C201.734 157.285 201.491 157.285 201.246 157.529C199.781 158.506 198.071 159.727 196.606 160.948C196.606 160.948 196.361 161.192 196.118 161.436C194.897 162.413 193.676 163.39 192.454 164.367C191.966 164.611 191.477 165.099 190.989 165.344C189.768 166.321 188.547 167.542 187.326 168.519C187.081 169.007 186.593 169.252 186.348 169.496C184.883 170.962 183.417 172.183 181.952 173.648C181.707 173.648 181.707 173.893 181.464 174.136C179.999 175.358 178.533 176.823 177.068 178.288C176.823 178.533 176.823 178.776 176.58 178.776C175.359 179.997 174.137 181.219 172.916 182.684C172.428 183.172 171.695 183.661 171.207 184.149C169.986 185.615 168.52 187.08 167.055 188.546C166.81 189.034 166.322 189.278 166.077 189.767C164.124 191.721 162.414 193.675 160.46 195.628C160.215 195.873 159.972 196.116 159.727 196.361C155.82 200.513 151.668 204.665 147.272 208.328C142.875 212.236 138.235 215.9 133.595 219.075C128.71 222.494 124.07 225.425 118.941 228.355C114.056 231.042 108.927 233.484 103.554 235.682C98.4252 237.88 93.0522 239.834 87.6791 241.544C77.4213 243.742 66.9194 247.894 57.8828 248.627C55.929 248.627 53.7309 249.115 51.7771 249.359C49.579 249.847 47.6251 250.337 45.6713 250.825C43.7175 251.557 41.7635 252.29 39.8097 253.023C37.8559 253.755 35.9021 254.732 33.9482 255.709C32.2386 256.93 30.2847 257.907 28.5751 259.128C26.8655 260.35 25.1558 261.815 23.6904 263.28C21.9809 264.502 20.2712 266.211 18.8058 267.677C17.3404 269.386 15.875 270.852 14.6539 272.561C13.4327 274.515 11.9673 276.225 10.9904 278.179C9.76924 279.888 8.54811 281.842 7.57114 283.796C6.59382 285.994 5.61731 287.948 4.88461 290.146C4.15191 292.1 3.41921 294.298 2.68651 296.496C2.19843 298.45 1.7092 300.404 1.46539 302.357C1.46539 302.602 1.22078 302.846 1.22078 303.09C0.732695 305.288 0.732694 308.219 0.488077 309.685C0.24347 311.394 0 312.859 0 314.569C0 315.546 7.60311e-07 316.767 0.244608 317.744C0.489215 319.454 0.732684 320.919 1.22192 322.385C1.71 323.85 2.19924 325.315 2.93148 326.781V327.025C3.66418 328.491 4.64115 329.956 5.61801 331.421C6.59532 332.887 7.57195 334.352 8.79308 335.818C10.0142 337.039 11.4796 338.504 12.945 339.725C14.4104 341.191 15.8758 342.412 17.5854 343.633C23.447 348.762 24.9124 350.472 32.4835 354.379C33.7046 355.112 34.9259 355.6 36.3913 356.333C36.6359 356.333 36.8794 356.578 37.124 356.578C37.124 357.066 37.124 357.31 37.3686 357.799C37.6132 359.753 38.1013 361.707 38.5898 363.66C39.0778 365.859 39.811 367.812 40.5437 369.522C41.2764 370.987 41.7648 372.453 42.4975 373.918C42.7421 374.406 42.9856 374.896 43.2302 375.139C44.2076 377.093 45.1841 378.803 46.1609 380.512C47.3822 382.222 48.6033 383.932 49.8244 385.641C51.0455 387.107 52.5109 388.816 53.9763 390.282C55.4417 391.747 56.9071 392.968 58.6168 394.434C58.6168 394.434 58.8615 394.678 59.1049 394.678C60.5703 395.9 62.0357 397.121 63.5011 398.098C65.2107 399.319 66.9203 400.296 68.8742 401.273C70.5838 402.25 72.5377 403.227 74.4915 403.959C75.9569 404.692 77.6664 405.18 79.3761 405.669C79.6208 405.914 79.8642 405.914 80.3534 406.157C81.3307 406.402 82.5514 406.645 83.5284 406.89C82.7957 420.078 82.5511 432.534 84.5057 436.93C86.7037 441.815 97.4499 426.917 108.196 409.821C106.731 426.672 105.754 446.455 108.196 452.317C110.883 458.422 125.537 439.372 138.237 418.369C311.397 378.315 469.415 497.988 486.022 666.996C482.847 640.619 450.364 625.965 435.466 629.629C428.139 647.702 415.684 670.904 395.657 685.314C397.366 669.194 396.634 652.587 393.214 636.467C387.841 658.937 377.339 679.941 362.93 698.014C339.728 699.723 316.526 688.488 304.314 671.637C303.337 670.904 303.093 669.438 302.36 668.462C301.627 666.752 300.895 665.042 300.406 663.333C299.674 661.623 299.185 659.913 298.941 658.204C298.696 656.494 298.696 654.785 298.696 652.831C298.696 651.61 298.696 650.388 298.696 649.167C298.941 647.458 299.429 645.748 299.917 644.038C300.405 642.329 300.895 640.619 301.627 638.91C302.604 637.2 303.337 635.49 304.558 633.781C308.71 622.058 308.71 612.533 301.139 606.915C299.673 605.938 298.208 605.206 296.498 604.473C295.521 604.228 294.3 603.74 293.323 603.496C292.59 603.251 292.102 603.007 291.369 602.763C289.66 602.275 287.95 601.785 286.24 601.542C284.531 601.054 282.821 600.809 281.112 600.809C279.402 600.564 277.448 600.321 275.738 600.321C274.517 600.321 273.296 600.565 272.075 600.565C270.121 600.565 268.411 600.81 266.702 601.298C264.992 601.543 263.283 601.786 261.573 602.275C259.863 602.764 258.154 603.253 256.444 603.985C254.735 604.718 253.269 605.451 251.559 606.183C250.094 606.916 248.629 607.893 246.919 608.625C190.013 645.749 223.961 732.695 262.794 757.851C248.14 760.537 233.242 763.713 229.09 766.887C228.846 767.132 228.602 767.376 228.602 767.376C239.104 773.726 250.095 779.099 261.573 783.739C277.204 788.868 293.812 793.508 301.139 795.462V795.707C321.41 799.859 341.926 801.324 362.685 800.103C470.88 792.532 559.536 710.226 575.655 601.787C576.143 603.985 576.633 605.939 577.121 608.137C577.853 612.533 578.83 617.174 579.319 621.814V622.059C579.807 624.257 580.051 626.455 580.296 628.409V629.386C580.541 631.584 580.784 633.782 580.784 635.736C581.029 638.423 581.272 641.109 581.272 643.796V647.703C581.272 648.925 581.517 650.39 581.517 651.611C581.517 653.077 581.272 654.542 581.272 656.007V659.427C581.272 661.136 581.027 662.602 581.027 664.311C581.027 665.288 581.027 666.265 580.783 667.486C580.783 669.196 580.538 670.905 580.538 672.859C580.293 673.592 580.293 674.325 580.293 675.057C580.049 677.011 579.805 678.721 579.56 680.675C579.56 681.408 579.56 682.14 579.316 682.873C579.071 685.315 578.583 687.513 578.339 689.956V690.2V690.445C577.851 692.643 577.361 695.085 576.873 697.283V698.016C576.385 700.214 575.896 702.412 575.408 704.61C575.408 704.855 575.163 705.343 575.163 705.588C574.675 707.786 574.186 709.984 573.454 712.182V712.915C572.721 715.357 571.988 717.555 571.5 719.753C571.255 719.998 571.255 720.241 571.255 720.241C570.523 722.684 569.79 725.126 569.057 727.568C568.08 730.01 567.348 732.209 566.371 734.651C565.394 737.093 564.661 739.536 563.684 741.734C562.707 744.176 561.73 746.374 560.753 748.816H560.509C559.531 751.014 558.555 753.457 557.333 755.655C557.089 756.387 556.845 756.876 556.601 757.364C556.356 757.609 556.356 757.852 556.113 758.097C540.238 790.091 516.791 818.178 487.484 840.159C485.53 841.38 483.576 842.845 481.622 844.311C481.134 844.799 480.401 845.043 479.912 845.532C478.203 846.753 476.493 847.974 474.539 849.195L475.272 850.661H475.517C478.936 850.173 482.355 849.684 485.774 849.195H486.019C492.369 848.218 498.719 846.997 505.069 845.776C506.779 845.531 508.733 845.043 510.442 844.555C511.663 844.31 512.64 844.067 513.861 843.822C515.571 843.577 517.281 843.09 518.99 842.845C520.456 842.357 521.921 842.112 523.386 841.624C547.81 835.762 571.5 827.702 594.213 818.178C555.381 871.176 503.359 913.916 442.546 942.003C470.632 940.049 498.719 935.409 525.829 927.593C624.254 898.53 707.048 832.343 756.627 743.198C746.614 799.616 724.145 853.347 690.929 900.239C714.62 884.608 736.356 866.535 756.139 846.02C810.847 788.87 846.749 716.333 858.96 638.423C867.264 677.012 869.707 716.822 866.043 756.143C1042.38 510.202 880.697 255.224 813.045 188.06C812.8 187.572 812.557 187.328 812.557 186.839C812.312 187.084 812.312 187.084 812.312 187.327C812.312 187.083 812.312 187.083 812.067 186.839C812.067 189.77 811.823 192.701 811.579 195.632C810.847 201.249 810.114 206.622 809.137 211.995C807.916 217.368 806.45 222.741 804.985 228.114C803.275 233.243 801.322 238.616 799.123 243.745C796.925 248.63 794.483 253.759 791.797 258.643C789.11 263.284 786.179 268.168 783.004 272.564C779.829 277.205 776.41 281.601 772.991 285.753C769.327 290.149 765.42 294.057 761.512 297.965C759.069 300.163 756.871 302.116 754.429 304.07C752.475 305.78 750.766 307.245 748.812 308.955C744.416 312.374 740.019 315.549 735.135 318.48C730.494 321.411 725.61 324.341 720.725 326.784C715.596 329.226 710.467 331.424 705.339 333.622C700.21 335.576 694.837 337.286 689.463 338.751C684.09 340.216 678.473 341.438 673.1 342.415C667.483 343.392 661.865 343.88 656.492 344.368C652.585 344.613 648.677 344.857 644.769 344.857C639.152 344.857 633.535 344.369 628.161 343.879C622.544 343.391 616.927 342.658 611.554 341.437C605.936 340.46 600.563 338.995 595.19 337.285H594.946C600.319 336.797 605.692 336.308 611.065 335.331C616.682 334.354 622.055 333.133 627.428 331.668C632.801 330.202 638.175 328.493 643.303 326.539C648.677 324.585 653.805 322.143 658.69 319.7C663.819 317.258 668.459 314.571 673.344 311.641C677.984 308.466 682.625 305.291 687.021 301.871C691.417 298.452 695.569 294.789 699.477 290.881C703.629 287.217 707.292 283.066 710.956 278.914C714.619 274.518 718.038 270.121 721.213 265.725C721.701 264.992 722.191 264.016 722.679 263.283C725.121 259.375 727.563 255.467 729.761 251.56C732.448 246.675 734.89 241.79 737.088 236.662C739.286 231.533 741.24 226.404 742.95 221.031C744.659 215.902 745.881 210.529 747.102 205.156C748.079 199.538 749.056 194.165 749.544 188.792C750.032 183.175 750.521 177.558 750.521 172.185C750.521 168.277 750.277 164.369 750.033 160.461C749.545 154.844 748.812 149.471 748.08 144.098C747.102 138.481 745.882 133.108 744.416 127.734C742.707 122.606 740.997 117.232 739.043 112.104C737.089 106.975 734.647 101.846 732.204 96.9612C729.518 92.0766 726.831 87.192 723.901 82.5516C720.726 77.9113 717.551 73.5151 714.131 69.1188C710.468 64.9669 706.804 60.815 702.897 56.6631C700.943 54.7093 698.745 52.5111 696.547 50.5573C685.556 42.0092 674.077 33.9495 662.599 26.6226C660.889 25.6453 659.424 24.913 657.714 24.1802C649.654 19.0514 642.083 16.3634 634.512 13.9212Z" fill="#7C7C7C"/>
</svg>
