<svg width="196" height="119" viewBox="0 0 196 119" fill="none" xmlns="http://www.w3.org/2000/svg">
<path d="M46.2477 30.8399H83.2151V33.7781H49.6364V55.8921H81.2127V58.8303H49.6364V83.1093H83.6002V86.0475H46.2477V30.8399ZM86.5268 30.8399H90.4546L107.86 55.1188L125.651 30.8399L149.849 0L110.094 57.6705L130.58 86.0475H126.498L107.86 60.2221L89.1453 86.0475H85.1405L105.781 57.6705L86.5268 30.8399ZM132.043 33.7781V30.8399H174.17V33.7781H154.762V86.0475H151.374V33.7781H132.043ZM0 30.8399H4.23585L62.6457 118.245L38.5077 86.0475L3.54271 35.0152L3.38868 86.0475H0V30.8399ZM173.829 82.2226C173.137 82.2226 172.617 81.6861 172.617 80.9929C172.617 80.2997 173.137 79.7632 173.829 79.7632C174.529 79.7632 175.041 80.2997 175.041 80.9929C175.041 81.6861 174.529 82.2226 173.829 82.2226ZM177.159 78.9875H178.972C178.997 79.9696 179.714 80.6298 180.769 80.6298C181.947 80.6298 182.615 79.92 182.615 78.5913V70.1735H184.461V78.5996C184.461 80.9929 183.076 82.3711 180.785 82.3711C178.634 82.3711 177.159 81.0342 177.159 78.9875ZM186.876 78.8802H188.706C188.862 80.0108 189.967 80.7288 191.558 80.7288C193.041 80.7288 194.129 79.9613 194.129 78.9049C194.129 77.9971 193.437 77.4525 191.862 77.0811L190.329 76.7097C188.178 76.2063 187.198 75.1664 187.198 73.4168C187.198 71.2959 188.928 69.8846 191.525 69.8846C193.939 69.8846 195.703 71.2959 195.81 73.3013H194.014C193.841 72.2037 192.885 71.5187 191.5 71.5187C190.041 71.5187 189.068 72.2202 189.068 73.2931C189.068 74.1431 189.695 74.63 191.244 74.9931L192.555 75.315C194.994 75.8844 196 76.8748 196 78.6656C196 80.9434 194.236 82.3711 191.417 82.3711C188.78 82.3711 187.008 81.0094 186.876 78.8802Z" fill="#7C7C7C"/>
</svg>
