<svg width="512" height="319" viewBox="0 0 512 319" fill="none" xmlns="http://www.w3.org/2000/svg">
<path d="M255.687 204.64L190.748 103.132L190.65 188.42L78.7332 0H0V318.083H78.107V129.898L188.87 309.65L255.687 204.64ZM190.767 81.7659H268.698V0H190.846L190.767 81.7659ZM425.03 188.713C402.288 158.854 359.434 165.914 346.688 198.457C379.091 159.68 405.118 195.536 425.03 188.713ZM433.463 192.881C437.15 198.965 444.422 201.871 451.287 200.003C461.794 197.753 461.07 207.692 476.938 211.057C477.453 198.565 473.309 197.278 460.972 192.568C448.589 188.788 439.214 183.286 433.58 172.395C415.128 137.02 359.434 150.853 348.097 184.604C370.354 154.789 415.947 156.973 433.463 192.881ZM301.315 140.503L268.503 88.927L190.767 88.927L264.629 204.601L192.548 318.083H268.053L300.904 267.622L334.342 318.083H409.866L341.386 210.314C334.571 199.213 345.946 167.954 365.167 155.676C387.889 141.161 424.411 139.841 440.859 174C454.379 191.609 481.38 183.9 481.38 206.87C482.45 227.056 511.619 226.427 511.57 205.97C509.772 88.6969 364.348 46.6076 301.315 140.503ZM497.972 244.848C497.972 244.848 491.789 241.834 495.545 236.063C499.713 229.625 507.95 230.369 511.648 222.425C513.592 233.343 507.266 248.698 497.972 244.848Z" fill="#969696"/>
</svg>
