<svg width="510" height="512" viewBox="0 0 510 512" fill="none" xmlns="http://www.w3.org/2000/svg">
<path d="M493.89 58.2753L355.178 83.5579L379.282 0L186.79 37.718L183.791 88.3585L15.1452 58.2139C3.52918 57.5382 -3.23848 65.8787 1.55833 77.4601L245.614 505.443C250.867 514.018 262.961 514.352 268.264 505.443L507.575 77.4188C512.976 67.7427 504.701 56.4006 493.89 58.2753ZM256.89 493.71L17.8687 74.5555L182.862 104.047L175.084 235.412L242.716 219.804L223.858 312.148L275.232 296.54L249.737 419.937C248.466 428.006 258.978 432.299 264.177 420.749L414.398 120.957L340.262 135.265L350.348 100.303L491.258 74.6194L256.89 493.71Z" fill="#7C7C7C"/>
</svg>
